<svg xmlns="http://www.w3.org/2000/svg" xmlns:xlink="http://www.w3.org/1999/xlink" x="0" y="0" width="661.6000366210938" height="301.6000061035156" style="
        width:661.6000366210938px;
        height:301.6000061035156px;
        background: transparent;
        fill: none;
">
        <svg xmlns="http://www.w3.org/2000/svg"/>
        
        <svg xmlns="http://www.w3.org/2000/svg" class="role-diagram-draw-area"><g class="shapes-region" style="stroke: black; fill: none;"><g class="composite-shape"><path class="real" d=" M210.11,136.61 C210.11,75.09 259.98,25.21 321.5,25.21 C383.02,25.21 432.89,75.09 432.89,136.61 C432.89,198.13 383.02,248 321.5,248 C259.98,248 210.11,198.13 210.11,136.61 Z" style="stroke-width: 1; stroke: rgb(0, 0, 0); fill: none; fill-opacity: 1;"/></g><g class="composite-shape"><path class="real" d=" M237.61,164.11 C237.61,117.77 275.17,80.21 321.5,80.21 C367.83,80.21 405.39,117.77 405.39,164.11 C405.39,210.44 367.83,248 321.5,248 C275.17,248 237.61,210.44 237.61,164.11 Z" style="stroke-width: 1; stroke: rgb(0, 0, 0); fill: none; fill-opacity: 1;"/></g><g class="composite-shape"><path class="real" d=" M248.11,174.61 C248.11,134.07 280.97,101.21 321.5,101.21 C362.03,101.21 394.89,134.07 394.89,174.61 C394.89,215.14 362.03,248 321.5,248 C280.97,248 248.11,215.14 248.11,174.61 Z" style="stroke-width: 1; stroke: rgb(0, 0, 0); fill: none; fill-opacity: 1;"/></g><g class="composite-shape"><path class="real" d=" M222.61,149.11 C222.61,94.49 266.88,50.21 321.5,50.21 C376.12,50.21 420.39,94.49 420.39,149.11 C420.39,203.72 376.12,248 321.5,248 C266.88,248 222.61,203.72 222.61,149.11 Z" style="stroke-width: 1; stroke: rgb(0, 0, 0); fill: none; fill-opacity: 1;"/></g><g/></g><g/><g/><g/></svg>
        <svg xmlns="http://www.w3.org/2000/svg" xmlns:xlink="http://www.w3.org/1999/xlink" width="660" height="300" style="width:660px;height:300px;font-family:Asana-Math, Asana;background:transparent;"><g><g><g><g transform="matrix(1,0,0,1,312.79998779296875,43.80000305175781)"><path transform="matrix(0.017,0,0,-0.017,0,0)" d="M402 371C393 371 384 371 375 372L369 360L646 -3C669 -2 691 0 714 0C737 0 760 -2 786 -3L786 27C762 29 740 34 725 53L498 349C595 368 693 433 693 542C693 612 653 692 502 692L22 692L22 662L66 659C107 656 117 648 117 569L117 120C117 41 107 31 66 29L22 27L22 -3C22 -3 77 0 236 0C282 0 380 -1 432 -3L432 27L384 29C340 31 333 41 333 120L333 642C361 649 389 654 435 654C513 654 593 624 593 516C593 458 552 371 402 371ZM195 31C168 31 163 46 163 120L163 569C163 643 169 655 196 658C234 654 238 647 238 569L238 120C238 45 233 31 195 31Z" stroke="rgb(0,0,0)" stroke-opacity="1" stroke-width="8" fill="rgb(0,0,0)" fill-opacity="1"></path></g></g></g></g><g><g><g><g transform="matrix(1,0,0,1,314.79998779296875,73.80000305175781)"><path transform="matrix(0.017,0,0,-0.017,0,0)" d="M408 -20L408 -18C602 -11 764 160 764 367C764 589 612 709 398 709C166 709 22 552 22 348C22 118 166 -19 377 -19L383 -19L383 -21L372 -25C353 -32 311 -60 263 -97L261 -129L320 -97C327 -93 335 -89 346 -89C369 -89 393 -94 426 -104L574 -149C616 -162 648 -169 680 -176L764 -120L764 -99C616 -129 518 -32 408 -20ZM657 336C657 152 583 23 409 23C349 23 300 40 261 67L261 642C295 658 335 667 382 667C568 667 657 534 657 336ZM215 109C156 179 129 281 129 381C129 478 157 560 215 611Z" stroke="rgb(0,0,0)" stroke-opacity="1" stroke-width="8" fill="rgb(0,0,0)" fill-opacity="1"></path></g></g></g></g><g><g><g><g transform="matrix(1,0,0,1,314.79998779296875,98.80000305175781)"><path transform="matrix(0.017,0,0,-0.017,0,0)" d="M788 173L754 173L748 116C741 48 723 44 574 44L301 44L787 663L783 692C731 691 739 689 687 689L477 689C345 689 212 691 80 692C84 638 84 584 80 529L114 529L120 601C123 634 134 648 272 648L500 648C478 609 444 568 414 529L112 142C81 102 47 64 15 25L15 -3C119 -2 373 0 477 0C580 0 684 -2 782 -3C782 54 783 118 788 173ZM709 648C688 609 654 568 624 529L322 142C296 108 268 76 241 44L151 44L625 648Z" stroke="rgb(0,0,0)" stroke-opacity="1" stroke-width="8" fill="rgb(0,0,0)" fill-opacity="1"></path></g></g></g></g><g><g><g><g transform="matrix(1,0,0,1,315.79998779296875,197.79998779296875)"><path transform="matrix(0.017,0,0,-0.017,0,0)" d="M934 662L934 692C889 691 854 689 814 689C778 689 738 691 698 692L698 662L742 659C785 655 793 651 793 569L793 102L789 102L312 692C294 691 276 689 258 689L138 689C96 689 51 691 17 692L17 662L61 659C102 656 112 648 112 569L112 120C112 41 102 31 61 29L17 27L17 -3C51 -2 96 -2 138 -1C178 -1 218 0 254 0C294 0 329 -2 374 -3L374 27L329 29C286 31 279 41 279 120L279 581L281 581L752 0L839 0L839 569C839 653 848 655 889 659ZM189 31C163 34 158 46 158 120L158 569C158 643 163 655 189 658C227 654 233 648 233 569L233 120C233 40 226 35 189 31Z" stroke="rgb(0,0,0)" stroke-opacity="1" stroke-width="8" fill="rgb(0,0,0)" fill-opacity="1"></path></g></g></g></g></svg>
</svg>
