<svg xmlns="http://www.w3.org/2000/svg" xmlns:xlink="http://www.w3.org/1999/xlink" x="0" y="0" width="661.6000366210938" height="301.6000061035156" style="
        width:661.6000366210938px;
        height:301.6000061035156px;
        background: transparent;
        fill: none;
">
        
        
        <svg xmlns="http://www.w3.org/2000/svg" class="role-diagram-draw-area"><g class="shapes-region" style="stroke: black; fill: none;"><g class="composite-shape axis2d" style="stroke-width: 1; stroke: rgb(0, 0, 0);"><path class="real" d=" M50,252.51 L567,252.51 M101.7,8.61 L101.7,279.61"/><path d=" M560,247.51 L567,252.51 L560,257.51"/><path d=" M96.7,15.61 L101.7,8.61 L106.7,15.61"/><path d=" M177.7,247.51 L177.7,257.51 M253.7,247.51 L253.7,257.51 M329.7,247.51 L329.7,257.51 M405.7,247.51 L405.7,257.51 M481.7,247.51 L481.7,257.51 M96.7,176.51 L106.7,176.51 M96.7,100.51 L106.7,100.51 M96.7,24.51 L106.7,24.51"/><g style="fill: rgb(0, 0, 0); fill-opacity: 1; font-size: 11px; font-weight: normal; text-anchor: end; stroke: none; font-family: Times;"/></g><g/></g><g/><g/><g/></svg>
        <svg xmlns="http://www.w3.org/2000/svg" xmlns:xlink="http://www.w3.org/1999/xlink" width="660" height="300" style="width:660px;height:300px;font-family:Asana-Math, Asana;background:transparent;"><g><g><g><g transform="matrix(1,0,0,1,247.79998779296875,276.8000030517578)"><path transform="matrix(0.017,0,0,-0.017,0,0)" d="M271 204L242 77C238 60 236 42 236 26C236 4 245 -9 260 -9C283 -9 324 17 406 85L399 106C375 86 346 59 324 59C315 59 309 68 309 82C309 87 309 90 310 93L402 472L392 481L359 463C318 478 301 482 274 482C246 482 226 477 199 464C137 433 104 403 79 354C35 265 4 145 4 67C4 23 19 -11 38 -11C75 -11 155 41 271 204ZM319 414C297 305 278 253 244 201C187 117 126 59 94 59C82 59 76 72 76 99C76 163 104 280 139 360C163 415 186 433 234 433C257 433 275 429 319 414Z" stroke="rgb(0,0,0)" stroke-opacity="1" stroke-width="8" fill="rgb(0,0,0)" fill-opacity="1"></path></g></g></g></g><g><g><g><g transform="matrix(1,0,0,1,401.79998779296875,273.8000030517578)"><path transform="matrix(0.017,0,0,-0.017,0,0)" d="M235 722L223 733C171 707 135 698 63 691L59 670L107 670C131 670 141 663 141 646C141 639 140 628 139 622L38 71C37 68 37 64 37 61C37 22 85 -11 140 -11C177 -11 228 8 271 39C367 107 433 244 433 376C433 414 424 453 412 468C405 477 392 482 377 482C353 482 323 474 295 460C244 433 211 403 149 324ZM322 424C348 424 361 401 361 352C361 288 340 202 310 137C277 68 237 36 183 36C137 36 112 59 112 101C112 135 127 276 208 361C241 395 293 424 322 424Z" stroke="rgb(0,0,0)" stroke-opacity="1" stroke-width="8" fill="rgb(0,0,0)" fill-opacity="1"></path></g></g></g></g><g><g><g><g transform="matrix(1,0,0,1,325.79998779296875,274.8000030517578)"><path transform="matrix(0.017,0,0,-0.017,0,0)" d="M385 458C342 475 313 482 284 482C209 482 121 394 103 374C63 327 24 181 24 78C24 19 36 -11 60 -11C82 -11 101 -3 133 19C180 51 259 121 308 209L232 -205C227 -229 217 -249 205 -262L214 -276C245 -268 276 -262 300 -259C304 -205 310 -150 319 -100L405 356C416 417 422 443 432 474L418 480ZM118 59C104 59 96 80 96 113C96 209 139 359 181 409C193 424 222 433 254 433C282 433 303 427 351 406L330 311C301 174 160 59 118 59Z" stroke="rgb(0,0,0)" stroke-opacity="1" stroke-width="8" fill="rgb(0,0,0)" fill-opacity="1"></path></g></g></g></g></svg>
</svg>
